<svg width="100" height="100" viewBox="0 0 100 100" fill="none" xmlns="http://www.w3.org/2000/svg">
<path d="M5.27344 50C5.27344 25.3521 25.2545 5.27344 49.9023 5.27344V5.27344C74.5502 5.27344 94.5312 25.3521 94.5312 50V50C94.5312 74.6479 74.5502 94.7266 49.9023 94.7266V94.7266C25.2545 94.7266 5.27344 74.6479 5.27344 50V50Z" fill="#363636"/>
<path d="M74.8047 15.9531C76.6345 15.9551 78.4227 16.4996 79.9431 17.5178C81.4635 18.536 82.6479 19.9822 83.3463 21.6735C84.0448 23.3648 84.2261 25.2253 83.8672 27.0196C83.5083 28.8139 82.6254 30.4616 81.3301 31.7541C80.0349 33.0466 78.3854 33.9261 76.5903 34.2812C74.7952 34.6362 72.9352 34.4511 71.2453 33.749C69.5555 33.047 68.1118 31.8596 67.0968 30.3371C66.0818 28.8145 65.541 27.0252 65.543 25.1953C65.5442 23.9803 65.7848 22.7775 66.251 21.6555C66.7171 20.5335 67.3997 19.5143 68.2597 18.6561C69.1197 17.7978 70.1404 17.1174 71.2634 16.6536C72.3864 16.1899 73.5897 15.9518 74.8047 15.9531ZM15.9512 74.8047C15.9527 76.6345 16.4968 78.4229 17.5147 79.9435C18.5327 81.4641 19.9786 82.6487 21.6698 83.3475C23.3609 84.0464 25.2214 84.228 27.0158 83.8695C28.8102 83.511 30.4579 82.6285 31.7508 81.3335C33.0436 80.0385 33.9233 78.3892 34.2788 76.5942C34.6343 74.7992 34.4495 72.9391 33.7478 71.2491C33.0461 69.5591 31.8591 68.1151 30.3367 67.0998C28.8144 66.0845 27.0252 65.5434 25.1953 65.5449C23.9803 65.5459 22.7774 65.7863 21.6553 66.2522C20.5332 66.7181 19.5139 67.4004 18.6555 68.2603C17.7971 69.1201 17.1165 70.1406 16.6524 71.2635C16.1884 72.3864 15.9501 73.5897 15.9512 74.8047ZM83.5937 9.29102H16.4063C14.52 9.2936 12.7117 10.0441 11.3779 11.3779C10.0441 12.7117 9.2936 14.52 9.29102 16.4063V83.5937C9.2936 85.48 10.0441 87.2883 11.3779 88.6221C12.7117 89.9559 14.52 90.7064 16.4063 90.709H83.5937C85.48 90.7064 87.2883 89.9559 88.6221 88.6221C89.9559 87.2883 90.7064 85.48 90.709 83.5937V16.4063C90.7064 14.52 89.9559 12.7117 88.6221 11.3779C87.2883 10.0441 85.48 9.2936 83.5937 9.29102ZM83.5937 5.38477C86.5151 5.39044 89.3151 6.55346 91.3808 8.61916C93.4465 10.6849 94.6096 13.4849 94.6152 16.4063V83.5937C94.6096 86.5151 93.4465 89.3151 91.3808 91.3808C89.3151 93.4465 86.5151 94.6096 83.5937 94.6152H16.4063C13.4849 94.6096 10.6849 93.4465 8.61916 91.3808C6.55346 89.3151 5.39044 86.5151 5.38477 83.5937V16.4063C5.39044 13.4849 6.55346 10.6849 8.61916 8.61916C10.6849 6.55346 13.4849 5.39044 16.4063 5.38477H83.5937Z" fill="white"/>
</svg>
