<svg width="142" height="74" viewBox="0 0 142 74" fill="none" xmlns="http://www.w3.org/2000/svg">
<path d="M8.25 12.555C9.86333 12.4817 11.44 12.445 12.98 12.445C14.5567 12.445 16.2067 12.61 17.93 12.94C19.69 13.27 21.4133 13.8933 23.1 14.81C24.8233 15.69 26.2717 16.845 27.445 18.275C28.655 19.6683 29.6267 21.52 30.36 23.83C31.0933 26.14 31.46 28.945 31.46 32.245C31.46 35.545 30.91 38.515 29.81 41.155C28.7467 43.7583 27.28 45.7567 25.41 47.15C21.78 49.8633 17.3983 51.22 12.265 51.22C10.4683 51.22 8.58 51.1467 6.6 51H3.85V12.555H8.25ZM8.415 50.56C9.185 50.6333 10.1567 50.67 11.33 50.67C12.5033 50.67 13.3833 50.6517 13.97 50.615C14.5567 50.5783 15.3633 50.4317 16.39 50.175C17.4167 49.8817 18.37 49.4967 19.25 49.02C20.13 48.5433 21.0467 47.8467 22 46.93C22.99 45.9767 23.8333 44.8583 24.53 43.575C26.1067 40.5683 26.895 36.645 26.895 31.805C26.895 28.3583 26.4733 25.3883 25.63 22.895C24.7867 20.365 23.815 18.495 22.715 17.285C21.6517 16.075 20.35 15.1217 18.81 14.425C17.27 13.6917 16.0417 13.27 15.125 13.16C14.2083 13.05 13.145 12.995 11.935 12.995C10.725 12.995 9.55167 13.05 8.415 13.16V50.56ZM36.9896 13.05V12.5H46.7796V13.05H44.0846V50.45H46.7796V51H36.9896V50.45H39.5196V13.05H36.9896ZM72.0573 51.22C65.2006 51.22 60.1223 49.2767 56.8223 45.39C55.649 43.9967 54.6956 42.145 53.9623 39.835C53.229 37.525 52.8623 34.72 52.8623 31.42C52.8623 28.12 53.394 25.1683 54.4573 22.565C55.5573 19.925 57.0423 17.89 58.9123 16.46C62.5423 13.7833 66.924 12.445 72.0573 12.445C73.524 12.445 74.954 12.5733 76.3473 12.83C77.7406 13.05 78.7856 13.2883 79.4823 13.545L80.4723 13.93L80.3073 14.48C77.814 13.49 75.064 12.995 72.0573 12.995C68.1706 12.995 64.9256 14.26 62.3223 16.79C60.3423 18.66 58.949 21.41 58.1423 25.04C57.6656 27.0933 57.4273 29.605 57.4273 32.575C57.4273 35.545 57.849 38.295 58.6923 40.825C59.5356 43.3183 60.489 45.17 61.5523 46.38C62.6523 47.59 63.9723 48.5617 65.5123 49.295C67.0523 49.9917 68.2806 50.395 69.1973 50.505C70.114 50.615 71.214 50.67 72.4973 50.67C73.8173 50.67 75.3023 50.5417 76.9523 50.285C78.6023 50.0283 79.849 49.79 80.6923 49.57L81.9573 49.185L82.1223 49.735C79.3356 50.725 75.9806 51.22 72.0573 51.22ZM109.798 12.5V13.05H92.4726V29.55H108.533V30.1H92.4726V50.45H111.008V51H87.9076V12.5H109.798ZM138.694 12.5V13.05H121.369V29.55H137.429V30.1H121.369V50.45H139.904V51H116.804V12.5H138.694Z" fill="white"/>
<line x1="51" y1="73.5" x2="92" y2="73.5" stroke="white"/>
</svg>
