<svg width="100" height="100" viewBox="0 0 100 100" fill="none" xmlns="http://www.w3.org/2000/svg">
<path d="M5.27344 50C5.27344 25.3521 25.2545 5.27344 49.9023 5.27344V5.27344C74.5502 5.27344 94.5312 25.3521 94.5312 50V50C94.5312 74.6479 74.5502 94.7266 49.9023 94.7266V94.7266C25.2545 94.7266 5.27344 74.6479 5.27344 50V50Z" fill="#363636"/>
<path d="M59.1543 49.9023C59.1543 51.7322 58.6117 53.521 57.5951 55.0425C56.5784 56.5639 55.1335 57.7498 53.4429 58.45C51.7523 59.1503 49.8921 59.3335 48.0974 58.9765C46.3027 58.6195 44.6541 57.7384 43.3602 56.4445C42.0663 55.1506 41.1852 53.502 40.8282 51.7073C40.4712 49.9126 40.6544 48.0524 41.3547 46.3618C42.0549 44.6712 43.2408 43.2262 44.7622 42.2096C46.2837 41.193 48.0725 40.6504 49.9023 40.6504C52.3561 40.6504 54.7094 41.6251 56.4445 43.3602C58.1795 45.0953 59.1543 47.4486 59.1543 49.9023ZM94.6289 83.5977C94.6289 85.0463 94.3436 86.4808 93.7892 87.8191C93.2348 89.1575 92.4223 90.3736 91.3979 91.3979C90.3736 92.4223 89.1575 93.2348 87.8191 93.7892C86.4808 94.3436 85.0463 94.6289 83.5977 94.6289H16.4102C14.9609 94.6299 13.5256 94.3454 12.1863 93.7914C10.847 93.2375 9.63001 92.4251 8.60484 91.4007C7.57966 90.3762 6.76641 89.1598 6.21155 87.8209C5.65669 86.4821 5.3711 85.047 5.3711 83.5977V16.4102C5.37007 14.9609 5.65464 13.5256 6.20856 12.1863C6.76247 10.847 7.57486 9.63001 8.59931 8.60484C9.62376 7.57966 10.8402 6.76641 12.1791 6.21155C13.5179 5.65669 14.953 5.3711 16.4023 5.3711H83.5898C85.0391 5.37007 86.4744 5.65464 87.8137 6.20856C89.153 6.76247 90.37 7.57486 91.3952 8.59931C92.4203 9.62376 93.2336 10.8402 93.7885 12.1791C94.3433 13.5179 94.6289 14.953 94.6289 16.4023V83.5977ZM90.7227 16.4102C90.7237 15.4738 90.5401 14.5465 90.1825 13.6811C89.8249 12.8158 89.3003 12.0294 88.6386 11.367C87.9768 10.7045 87.191 10.179 86.3261 9.82045C85.4611 9.4619 84.534 9.27735 83.5977 9.27735H16.4102C15.4738 9.27632 14.5465 9.45986 13.6811 9.81746C12.8158 10.1751 12.0294 10.6997 11.367 11.3614C10.7045 12.0232 10.179 12.809 9.82045 13.6739C9.4619 14.5389 9.27735 15.466 9.27735 16.4023V83.5898C9.27632 84.5262 9.45986 85.4535 9.81746 86.3189C10.1751 87.1842 10.6997 87.9706 11.3614 88.633C12.0232 89.2955 12.809 89.821 13.6739 90.1796C14.5389 90.5381 15.466 90.7227 16.4023 90.7227H83.5898C84.5262 90.7237 85.4535 90.5401 86.3189 90.1825C87.1842 89.8249 87.9706 89.3003 88.633 88.6386C89.2955 87.9768 89.821 87.191 90.1796 86.3261C90.5381 85.4611 90.7227 84.534 90.7227 83.5977V16.4102Z" fill="white"/>
</svg>
