<svg width="100" height="100" viewBox="0 0 100 100" fill="none" xmlns="http://www.w3.org/2000/svg">
<path d="M5.27344 50C5.27344 25.3521 25.2545 5.27344 49.9023 5.27344C74.5502 5.27344 94.5312 25.3521 94.5312 50C94.5312 74.6479 74.5502 94.7266 49.9023 94.7266C25.2545 94.7266 5.27344 74.6479 5.27344 50Z" fill="#363636"/>
<path d="M34.3574 25.0977C34.3594 26.9276 33.8186 28.717 32.8035 30.2396C31.7884 31.7622 30.3446 32.9496 28.6546 33.6516C26.9647 34.3535 25.1045 34.5386 23.3094 34.1834C21.5142 33.8281 19.8648 32.9485 18.5696 31.6558C17.2744 30.363 16.3916 28.7152 16.033 26.9208C15.6743 25.1263 15.8558 23.2658 16.5546 21.5745C17.2534 19.8832 18.438 18.4372 19.9587 17.4192C21.4793 16.4012 23.2677 15.857 25.0977 15.8555C27.5511 15.8534 29.9049 16.8259 31.6414 18.5591C33.3779 20.2923 34.3548 22.6442 34.3574 25.0977ZM74.707 15.8555C72.8763 15.8535 71.0862 16.3948 69.5633 17.4106C68.0403 18.4265 66.8529 19.8714 66.1515 21.5623C65.45 23.2533 65.2659 25.1144 65.6226 26.91C65.9793 28.7056 66.8607 30.355 68.1552 31.6495C69.4496 32.944 71.0991 33.8254 72.8947 34.1821C74.6903 34.5388 76.5514 34.3547 78.2423 33.6532C79.9333 32.9518 81.3782 31.7644 82.3941 30.2414C83.4099 28.7185 83.9511 26.9284 83.9492 25.0977C83.9466 22.6473 82.9721 20.298 81.2394 18.5653C79.5067 16.8326 77.1574 15.8581 74.707 15.8555ZM25.0977 40.6504C23.2681 40.6519 21.4801 41.1959 19.9597 42.2134C18.4392 43.231 17.2546 44.6765 16.5555 46.3672C15.8565 48.0579 15.6744 49.9179 16.0322 51.7121C16.3901 53.5063 17.2719 55.1541 18.5661 56.4472C19.8603 57.7403 21.5089 58.6207 23.3034 58.9771C25.0979 59.3334 26.9577 59.1498 28.6478 58.4493C30.338 57.7488 31.7825 56.563 32.7987 55.0416C33.815 53.5203 34.3574 51.7319 34.3574 49.9023C34.3574 48.6867 34.1179 47.483 33.6524 46.36C33.187 45.237 32.5048 44.2167 31.6448 43.3575C30.7849 42.4982 29.764 41.8169 28.6406 41.3524C27.5172 40.8879 26.3133 40.6494 25.0977 40.6504ZM74.6895 40.6504C72.8599 40.6519 71.0719 41.1959 69.5515 42.2134C68.031 43.231 66.8464 44.6765 66.1473 46.3672C65.4483 48.0579 65.2662 49.9179 65.624 51.7121C65.9819 53.5063 66.8637 55.1541 68.1579 56.4472C69.4521 57.7403 71.1007 58.6207 72.8952 58.9771C74.6897 59.3334 76.5495 59.1498 78.2396 58.4493C79.9298 57.7488 81.3743 56.563 82.3905 55.0416C83.4068 53.5203 83.9492 51.7319 83.9492 49.9023C83.9492 47.4503 82.9758 45.0985 81.2428 43.3637C79.5099 41.6289 77.1591 40.653 74.707 40.6504H74.6895ZM25.0977 65.4473C23.2685 65.4488 21.4808 65.9925 19.9605 67.0098C18.4402 68.027 17.2556 69.472 16.5563 71.1623C15.857 72.8525 15.6744 74.7121 16.0317 76.5061C16.3889 78.3001 17.2699 79.9479 18.5634 81.2413C19.8568 82.5348 21.5046 83.4158 23.2986 83.773C25.0926 84.1302 26.9522 83.9477 28.6424 83.2484C30.3327 82.5491 31.7777 81.3645 32.7949 79.8442C33.8121 78.3239 34.3559 76.5362 34.3574 74.707C34.3585 73.4907 34.1196 72.2862 33.6547 71.1623C33.1897 70.0384 32.5076 69.0171 31.6476 68.1571C30.7875 67.297 29.7663 66.615 28.6424 66.15C27.5185 65.6851 26.314 65.4462 25.0977 65.4473ZM74.6895 65.4473C72.8603 65.4488 71.0726 65.9925 69.5523 67.0098C68.032 68.027 66.8474 69.472 66.1481 71.1623C65.4488 72.8525 65.2662 74.7121 65.6235 76.5061C65.9807 78.3001 66.8617 79.9479 68.1552 81.2413C69.4486 82.5348 71.0964 83.4158 72.8904 83.773C74.6844 84.1302 76.544 83.9477 78.2342 83.2484C79.9245 82.5491 81.3695 81.3645 82.3867 79.8442C83.4039 78.3239 83.9477 76.5362 83.9492 74.707C83.9513 72.2536 82.9788 69.8998 81.2456 68.1633C79.5124 66.4268 77.1605 65.4499 74.707 65.4473H74.6895ZM94.6113 83.5977C94.6113 86.5203 93.4515 89.3235 91.3866 91.3917C89.3216 93.46 86.5203 94.6243 83.5977 94.6289H16.4102C14.9609 94.6299 13.5256 94.3454 12.1863 93.7914C10.847 93.2375 9.63001 92.4251 8.60484 91.4007C7.57966 90.3762 6.76641 89.1598 6.21155 87.8209C5.65669 86.4821 5.3711 85.047 5.3711 83.5977V16.4102C5.37007 14.9609 5.65464 13.5256 6.20856 12.1863C6.76247 10.847 7.57486 9.63001 8.59931 8.60484C9.62376 7.57966 10.8402 6.76641 12.1791 6.21155C13.5179 5.65669 14.953 5.3711 16.4023 5.3711H83.5898C85.0391 5.37007 86.4744 5.65464 87.8137 6.20856C89.153 6.76247 90.37 7.57486 91.3952 8.59931C92.4203 9.62376 93.2336 10.8402 93.7885 12.1791C94.3433 13.5179 94.6289 14.953 94.6289 16.4023L94.6113 83.5977ZM90.7051 16.4102C90.7072 14.5222 89.9598 12.7106 88.6272 11.3732C87.2946 10.0358 85.4856 9.282 83.5977 9.27735H16.4102C15.4738 9.27632 14.5465 9.45986 13.6811 9.81746C12.8158 10.1751 12.0294 10.6997 11.367 11.3614C10.7045 12.0232 10.179 12.809 9.82045 13.6739C9.4619 14.5389 9.27735 15.466 9.27735 16.4023V83.5898C9.27632 84.5262 9.45986 85.4535 9.81746 86.3189C10.1751 87.1842 10.6997 87.9706 11.3614 88.633C12.0232 89.2955 12.809 89.821 13.6739 90.1796C14.5389 90.5381 15.466 90.7227 16.4023 90.7227H83.5898C84.5262 90.7237 85.4535 90.5401 86.3189 90.1825C87.1842 89.8249 87.9706 89.3003 88.633 88.6386C89.2955 87.9768 89.821 87.191 90.1796 86.3261C90.5381 85.4611 90.7227 84.534 90.7227 83.5977L90.7051 16.4102Z" fill="white"/>
</svg>
