<svg width="100" height="100" viewBox="0 0 100 100" fill="none" xmlns="http://www.w3.org/2000/svg">
<path d="M5.27344 50C5.27344 25.3521 25.2545 5.27344 49.9023 5.27344C74.5502 5.27344 94.5312 25.3521 94.5312 50C94.5312 74.6479 74.5502 94.7266 49.9023 94.7266C25.2545 94.7266 5.27344 74.6479 5.27344 50Z" fill="#363636"/>
<path d="M59.1543 49.9023C59.1543 51.7322 58.6117 53.521 57.5951 55.0425C56.5784 56.5639 55.1335 57.7498 53.4429 58.45C51.7523 59.1503 49.8921 59.3335 48.0974 58.9765C46.3027 58.6195 44.6541 57.7384 43.3602 56.4445C42.0663 55.1506 41.1852 53.502 40.8282 51.7073C40.4712 49.9126 40.6544 48.0523 41.3547 46.3618C42.0549 44.6712 43.2408 43.2262 44.7622 42.2096C46.2837 41.193 48.0725 40.6504 49.9023 40.6504C52.3561 40.6504 54.7094 41.6251 56.4445 43.3602C58.1795 45.0953 59.1543 47.4486 59.1543 49.9023ZM25.0977 15.8555C23.2677 15.857 21.4793 16.4012 19.9587 17.4192C18.438 18.4372 17.2534 19.8832 16.5546 21.5745C15.8558 23.2658 15.6743 25.1263 16.033 26.9208C16.3916 28.7152 17.2744 30.363 18.5696 31.6558C19.8648 32.9485 21.5142 33.8281 23.3094 34.1834C25.1045 34.5386 26.9647 34.3535 28.6546 33.6516C30.3446 32.9496 31.7884 31.7622 32.8035 30.2396C33.8186 28.717 34.3594 26.9276 34.3574 25.0977C34.3548 22.6442 33.3779 20.2923 31.6414 18.5591C29.9049 16.8259 27.5511 15.8534 25.0977 15.8555ZM74.6895 15.8555C72.8595 15.857 71.0711 16.4012 69.5505 17.4192C68.0298 18.4372 66.8452 19.8832 66.1464 21.5745C65.4476 23.2658 65.2661 25.1263 65.6248 26.9208C65.9834 28.7152 66.8662 30.363 68.1614 31.6558C69.4566 32.9485 71.106 33.8281 72.9012 34.1834C74.6963 34.5386 76.5565 34.3535 78.2464 33.6516C79.9364 32.9496 81.3802 31.7622 82.3953 30.2396C83.4104 28.717 83.9511 26.9276 83.9492 25.0977C83.9466 22.6473 82.9721 20.298 81.2394 18.5653C79.5067 16.8326 77.1574 15.8581 74.707 15.8555H74.6895ZM25.0977 65.4473C23.2685 65.4488 21.4808 65.9925 19.9605 67.0098C18.4402 68.027 17.2556 69.472 16.5563 71.1623C15.857 72.8525 15.6744 74.7121 16.0317 76.5061C16.3889 78.3001 17.2699 79.9479 18.5634 81.2413C19.8568 82.5348 21.5046 83.4158 23.2986 83.773C25.0926 84.1302 26.9522 83.9477 28.6424 83.2484C30.3327 82.5491 31.7777 81.3645 32.7949 79.8442C33.8121 78.3239 34.3559 76.5362 34.3574 74.707C34.3585 73.4907 34.1196 72.2862 33.6547 71.1623C33.1897 70.0384 32.5076 69.0171 31.6476 68.1571C30.7875 67.297 29.7663 66.615 28.6424 66.15C27.5185 65.6851 26.314 65.4462 25.0977 65.4473ZM74.6895 65.4473C72.8603 65.4488 71.0726 65.9925 69.5523 67.0098C68.032 68.027 66.8474 69.472 66.1481 71.1623C65.4488 72.8525 65.2662 74.7121 65.6235 76.5061C65.9807 78.3001 66.8617 79.9479 68.1552 81.2413C69.4486 82.5348 71.0964 83.4158 72.8904 83.773C74.6844 84.1302 76.544 83.9477 78.2342 83.2484C79.9245 82.5491 81.3695 81.3645 82.3867 79.8442C83.4039 78.3239 83.9477 76.5362 83.9492 74.707C83.9513 72.2536 82.9788 69.8998 81.2456 68.1633C79.5124 66.4268 77.1605 65.4499 74.707 65.4473H74.6895ZM94.6113 83.5977C94.6113 86.5203 93.4515 89.3235 91.3866 91.3917C89.3216 93.46 86.5203 94.6243 83.5977 94.6289H16.4102C14.9609 94.6299 13.5256 94.3454 12.1863 93.7914C10.847 93.2375 9.63001 92.4251 8.60484 91.4007C7.57966 90.3762 6.76641 89.1598 6.21155 87.8209C5.65669 86.4821 5.3711 85.047 5.3711 83.5977V16.4102C5.37007 14.9609 5.65464 13.5256 6.20856 12.1863C6.76247 10.847 7.57486 9.63001 8.59931 8.60484C9.62376 7.57966 10.8402 6.76641 12.1791 6.21155C13.5179 5.65669 14.953 5.3711 16.4023 5.3711H83.5898C85.0391 5.37007 86.4744 5.65464 87.8137 6.20856C89.153 6.76247 90.37 7.57486 91.3952 8.59931C92.4203 9.62376 93.2336 10.8402 93.7885 12.1791C94.3433 13.5179 94.6289 14.953 94.6289 16.4023L94.6113 83.5977ZM90.7051 16.4102C90.7072 14.5222 89.9598 12.7106 88.6272 11.3732C87.2946 10.0358 85.4856 9.282 83.5977 9.27735H16.4102C15.4738 9.27632 14.5465 9.45986 13.6811 9.81746C12.8158 10.1751 12.0294 10.6997 11.367 11.3614C10.7045 12.0232 10.179 12.809 9.82045 13.6739C9.4619 14.5389 9.27735 15.466 9.27735 16.4023V83.5898C9.27632 84.5262 9.45986 85.4535 9.81746 86.3189C10.1751 87.1842 10.6997 87.9706 11.3614 88.633C12.0232 89.2955 12.809 89.821 13.6739 90.1796C14.5389 90.5381 15.466 90.7227 16.4023 90.7227H83.5898C84.5262 90.7237 85.4535 90.5401 86.3189 90.1825C87.1842 89.8249 87.9706 89.3003 88.633 88.6386C89.2955 87.9768 89.821 87.191 90.1796 86.3261C90.5381 85.4611 90.7227 84.534 90.7227 83.5977L90.7051 16.4102Z" fill="white"/>
</svg>
